<svg xmlns="http://www.w3.org/2000/svg" xmlns:xlink="http://www.w3.org/1999/xlink" width="500" zoomAndPan="magnify" viewBox="0 0 375 374.999991" height="500" preserveAspectRatio="xMidYMid meet" version="1.0"><defs><clipPath id="ed1fe1b950"><path d="M 69.21875 63.484375 L 305.46875 63.484375 L 305.46875 311.734375 L 69.21875 311.734375 Z M 69.21875 63.484375 " clip-rule="nonzero"/></clipPath></defs><g clip-path="url(#ed1fe1b950)"><path fill="#010101" d="M 70.234375 212.703125 C 70.027344 194.390625 70.058594 174.960938 69.464844 155.585938 C 69.210938 146.316406 72.335938 139 79 132.835938 C 86.210938 126.15625 93.3125 119.351562 100.445312 112.570312 C 112.234375 101.335938 124.039062 90.09375 135.855469 78.835938 C 140.894531 73.957031 146.441406 69.742188 152.492188 66.191406 C 155.246094 64.609375 158.035156 63.503906 161.257812 63.609375 C 169.507812 63.917969 177.820312 63.980469 186.078125 64.484375 C 195.886719 65.078125 205.675781 65.996094 215.472656 66.835938 C 224.746094 67.652344 234.015625 68.558594 243.285156 69.382812 C 251.535156 70.128906 259.78125 70.855469 268.03125 71.570312 C 272.929688 72.019531 277.761719 72.859375 282.523438 74.09375 C 291.363281 76.335938 296.609375 82.34375 299.703125 90.507812 C 301.1875 94.417969 301.5 98.558594 301.863281 102.699219 C 302.996094 115.597656 302.753906 128.539062 303.234375 141.464844 C 303.996094 161.886719 304.753906 182.308594 305.5 202.730469 C 305.667969 207.382812 305.699219 212.042969 305.667969 216.703125 C 305.695312 218.84375 305.53125 220.96875 305.167969 223.078125 C 304.804688 225.1875 304.253906 227.246094 303.511719 229.25 C 302.765625 231.257812 301.84375 233.179688 300.746094 235.015625 C 299.648438 236.851562 298.390625 238.574219 296.972656 240.175781 C 293.386719 244.261719 289.804688 248.351562 286.070312 252.292969 C 268.75 270.503906 250.519531 287.761719 232.117188 304.800781 C 227.484375 309.105469 222.410156 311.449219 216.035156 310.980469 C 204.175781 310.105469 192.296875 309.410156 180.429688 308.503906 C 171.148438 307.796875 161.871094 306.953125 152.597656 306.03125 C 132.515625 304.117188 112.414062 302.367188 92.429688 299.539062 C 90.382812 299.25 88.371094 298.714844 86.351562 298.300781 C 80.1875 297.03125 76.394531 293.171875 74.496094 287.308594 C 73.320312 283.308594 72.71875 279.226562 72.683594 275.058594 C 72.140625 260.847656 71.652344 246.621094 71.117188 232.40625 C 70.878906 226.207031 70.5625 220.003906 70.234375 212.703125 Z M 70.234375 212.703125 " fill-opacity="1" fill-rule="nonzero"/></g><path fill="#ffffff" d="M 82.863281 150.949219 C 85.46875 150.296875 88 150.851562 90.523438 151.148438 C 107.210938 153.09375 123.871094 155.273438 140.574219 156.996094 C 161.65625 159.214844 182.761719 161.121094 203.859375 163.183594 C 210.269531 163.816406 212.363281 166.035156 212.519531 172.699219 C 212.753906 183.042969 212.742188 193.386719 212.941406 203.730469 C 213.492188 232.433594 214.0625 261.132812 214.648438 289.832031 C 214.648438 291.902344 214.714844 293.953125 214.648438 296.035156 C 214.648438 297.617188 213.683594 298.292969 212.175781 298.234375 C 209.335938 298.121094 206.484375 298.070312 203.65625 297.824219 C 194.902344 297.054688 186.152344 296.171875 177.402344 295.347656 C 161.449219 293.863281 145.488281 292.445312 129.5625 290.894531 C 119.019531 289.863281 108.496094 288.636719 97.964844 287.503906 C 97.445312 287.445312 96.925781 287.464844 96.414062 287.414062 C 88.007812 286.515625 86.035156 284.800781 85.453125 276.378906 C 84.675781 265.292969 84.171875 254.183594 83.800781 243.074219 C 82.976562 214.898438 81.972656 186.722656 82.070312 158.523438 C 82.128906 156.046875 81.476562 153.417969 82.863281 150.949219 Z M 82.863281 150.949219 " fill-opacity="1" fill-rule="nonzero"/><path fill="#fb2c36" d="M 282.265625 87.441406 C 280.542969 89.320312 279.726562 90.292969 278.835938 91.167969 C 265.175781 104.585938 251.46875 117.941406 237.867188 131.417969 C 231.425781 137.792969 224.671875 143.789062 217.882812 149.796875 C 215.554688 151.855469 213.304688 152.886719 210.21875 152.320312 C 193.15625 149.167969 175.800781 148.589844 158.613281 146.546875 C 141.175781 144.449219 123.640625 143.054688 106.152344 141.316406 C 102.03125 140.910156 97.90625 140.382812 93.832031 139.890625 C 92.609375 139.742188 92 138.601562 92.71875 137.703125 C 93.804688 136.265625 94.988281 134.910156 96.265625 133.636719 C 112.242188 118.511719 128.246094 103.417969 144.269531 88.355469 C 147.824219 85.054688 151.808594 82.078125 155.585938 78.9375 C 156.773438 77.917969 158.109375 77.15625 159.589844 76.648438 C 161.070312 76.136719 162.589844 75.914062 164.15625 75.984375 C 170.355469 76.15625 176.527344 76.207031 182.738281 76.890625 C 191.472656 77.855469 200.257812 78.417969 209.015625 79.09375 C 224.488281 80.28125 239.972656 81.304688 255.417969 82.648438 C 262.109375 83.234375 268.738281 84.394531 275.378906 85.433594 C 277.390625 85.773438 279.324219 86.574219 282.265625 87.441406 Z M 282.265625 87.441406 " fill-opacity="1" fill-rule="nonzero"/><path fill="#d8f999" d="M 291.835938 170.40625 C 292.132812 183.851562 292.429688 197.292969 292.726562 210.730469 C 292.773438 213.3125 292.609375 215.902344 292.667969 218.484375 C 292.703125 219.652344 292.621094 220.808594 292.421875 221.957031 C 292.222656 223.109375 291.910156 224.226562 291.484375 225.3125 C 291.058594 226.398438 290.527344 227.433594 289.894531 228.410156 C 289.261719 229.390625 288.535156 230.296875 287.71875 231.128906 C 285.597656 233.398438 283.675781 235.847656 281.484375 238.03125 C 264.988281 254.464844 248.464844 270.859375 231.921875 287.214844 C 230.804688 288.273438 229.597656 289.222656 228.308594 290.0625 C 227.804688 290.109375 227.386719 289.9375 227.0625 289.550781 C 226.882812 288.53125 226.804688 287.5 226.824219 286.464844 C 226.722656 277.160156 226.714844 267.851562 226.527344 258.546875 C 225.949219 229.855469 225.328125 201.160156 224.664062 172.46875 C 224.734375 170.914062 224.632812 169.371094 224.355469 167.84375 C 223.277344 163.644531 224.664062 160.988281 227.988281 157.945312 C 248.136719 139.742188 267.625 120.828125 285.308594 100.207031 C 285.796875 99.609375 286.347656 99.074219 286.960938 98.609375 C 287.109375 98.488281 287.28125 98.410156 287.46875 98.371094 C 287.660156 98.335938 287.847656 98.34375 288.03125 98.398438 C 288.21875 98.453125 288.378906 98.550781 288.515625 98.683594 C 288.65625 98.816406 288.753906 98.976562 288.816406 99.160156 C 289.117188 100.417969 289.265625 101.695312 289.261719 102.988281 C 290.097656 125.464844 290.921875 147.9375 291.734375 170.40625 Z M 291.835938 170.40625 " fill-opacity="1" fill-rule="nonzero"/><path fill="#ffffff" d="M 294.210938 251.351562 L 292.75 252.003906 L 298.140625 263.949219 L 294.253906 255.335938 C 294.199219 255.335938 294.144531 255.332031 294.089844 255.335938 C 290.019531 248.832031 281.660156 246.164062 274.457031 249.394531 L 271.859375 250.5625 C 271.859375 250.5625 280 268.613281 280.238281 269.132812 C 280.558594 269.84375 273.058594 253.222656 273.703125 254.652344 C 270.445312 247.425781 261.929688 244.203125 254.683594 247.453125 L 250.96875 249.121094 L 262.816406 275.386719 L 236.816406 217.742188 C 234.304688 212.179688 227.75 209.699219 222.171875 212.203125 C 216.59375 214.703125 214.105469 221.242188 216.613281 226.804688 L 249.609375 299.957031 C 219.511719 291.765625 219.585938 296.316406 216.59375 301.3125 C 213.460938 306.550781 215.175781 313.328125 220.429688 316.457031 L 267 344.171875 C 272.8125 347.644531 281.421875 354.660156 303.644531 344.695312 L 318.039062 338.238281 C 333.585938 331.261719 340.484375 312.953125 333.445312 297.34375 L 332.320312 294.851562 L 322.761719 273.664062 L 316.503906 259.789062 C 312.683594 251.320312 302.703125 247.542969 294.210938 251.351562 " fill-opacity="1" fill-rule="nonzero"/><path fill="#1d1d1b" d="M 221.917969 298.53125 C 220.679688 299.085938 220.152344 300.03125 219.347656 301.472656 C 219.148438 301.832031 218.941406 302.203125 218.71875 302.574219 C 217.539062 304.542969 217.199219 306.851562 217.761719 309.070312 C 218.324219 311.292969 219.722656 313.164062 221.695312 314.339844 L 268.265625 342.054688 C 268.667969 342.292969 269.078125 342.546875 269.503906 342.808594 C 275.234375 346.355469 283.085938 351.210938 302.628906 342.445312 L 317.023438 335.988281 C 331.304688 329.582031 337.660156 312.699219 331.191406 298.355469 L 314.25 260.800781 C 311.113281 253.851562 303.082031 250.597656 296.03125 253.265625 L 300.394531 262.941406 C 300.957031 264.179688 300.398438 265.640625 299.15625 266.199219 C 297.910156 266.757812 296.445312 266.203125 295.886719 264.960938 L 292.3125 257.042969 C 292.195312 256.921875 292.085938 256.785156 291.996094 256.640625 C 288.535156 251.117188 281.433594 248.972656 275.472656 251.644531 L 275.128906 251.796875 L 282.5 268.144531 C 283.0625 269.386719 282.507812 270.84375 281.261719 271.40625 C 280.015625 271.964844 278.550781 271.410156 277.992188 270.167969 L 271.449219 255.664062 C 268.753906 249.6875 261.6875 247.015625 255.699219 249.699219 L 254.238281 250.355469 L 265.070312 274.375 C 265.628906 275.617188 265.074219 277.078125 263.832031 277.632812 C 262.585938 278.191406 261.121094 277.640625 260.5625 276.398438 L 234.558594 218.753906 C 232.613281 214.441406 227.511719 212.507812 223.183594 214.449219 C 218.859375 216.390625 216.921875 221.480469 218.867188 225.792969 L 251.863281 298.945312 C 252.257812 299.816406 252.109375 300.832031 251.488281 301.558594 C 250.867188 302.285156 249.882812 302.585938 248.957031 302.332031 C 236.550781 298.957031 228.425781 297.542969 224.121094 298.007812 C 223.183594 298.109375 222.476562 298.28125 221.917969 298.53125 Z M 319.050781 340.484375 L 304.65625 346.941406 C 282.714844 356.785156 272.8125 350.660156 266.898438 347 C 266.492188 346.75 266.105469 346.511719 265.726562 346.285156 L 219.160156 318.574219 C 216.054688 316.722656 213.855469 313.777344 212.96875 310.28125 C 212.082031 306.78125 212.617188 303.148438 214.472656 300.046875 C 214.667969 299.71875 214.851562 299.390625 215.03125 299.070312 C 218.523438 292.820312 222.644531 290.523438 245.226562 296.25 L 214.359375 227.816406 C 211.292969 221.023438 214.34375 213.007812 221.15625 209.953125 C 227.96875 206.898438 236.003906 209.9375 239.070312 216.730469 L 252.207031 245.859375 L 253.667969 245.203125 C 259.882812 242.417969 266.910156 243.707031 271.722656 247.917969 L 273.441406 247.148438 C 279.765625 244.3125 287.019531 245.417969 292.195312 249.550781 L 293.195312 249.101562 C 302.917969 244.742188 314.386719 249.082031 318.757812 258.777344 L 335.699219 296.332031 C 343.289062 313.15625 335.820312 332.964844 319.050781 340.484375 " fill-opacity="1" fill-rule="nonzero"/></svg>