<svg xmlns="http://www.w3.org/2000/svg" xmlns:xlink="http://www.w3.org/1999/xlink" width="500" zoomAndPan="magnify" viewBox="0 0 375 374.999991" height="500" preserveAspectRatio="xMidYMid meet" version="1.0"><defs><clipPath id="c24e5a4e6a"><path d="M 25 17.054688 L 349.6875 17.054688 L 349.6875 358 L 25 358 Z M 25 17.054688 " clip-rule="nonzero"/></clipPath></defs><g clip-path="url(#c24e5a4e6a)"><path fill="#010101" d="M 26.332031 222.140625 C 26.050781 196.976562 26.09375 170.269531 25.277344 143.640625 C 24.925781 130.898438 29.222656 120.84375 38.382812 112.375 C 48.289062 103.195312 58.050781 93.839844 67.855469 84.523438 C 84.058594 69.082031 100.28125 53.628906 116.519531 38.160156 C 123.449219 31.453125 131.070312 25.660156 139.386719 20.78125 C 143.171875 18.605469 147.003906 17.085938 151.433594 17.234375 C 162.769531 17.652344 174.199219 17.742188 185.546875 18.433594 C 199.023438 19.25 212.480469 20.507812 225.945312 21.664062 C 238.6875 22.789062 251.429688 24.035156 264.171875 25.167969 C 275.507812 26.1875 286.84375 27.191406 298.179688 28.171875 C 304.910156 28.789062 311.550781 29.945312 318.09375 31.640625 C 330.246094 34.726562 337.457031 42.976562 341.707031 54.199219 C 343.75 59.574219 344.179688 65.265625 344.679688 70.953125 C 346.230469 88.683594 345.902344 106.46875 346.558594 124.234375 C 347.609375 152.300781 348.648438 180.367188 349.675781 208.4375 C 349.902344 214.828125 349.949219 221.234375 349.902344 227.640625 C 349.945312 230.578125 349.71875 233.5 349.21875 236.398438 C 348.722656 239.296875 347.960938 242.125 346.941406 244.882812 C 345.917969 247.644531 344.652344 250.285156 343.140625 252.808594 C 341.632812 255.332031 339.902344 257.695312 337.957031 259.902344 C 333.023438 265.511719 328.105469 271.132812 322.96875 276.554688 C 299.164062 301.582031 274.113281 325.296875 248.820312 348.71875 C 242.453125 354.636719 235.480469 357.855469 226.71875 357.207031 C 210.417969 356.007812 194.09375 355.054688 177.78125 353.808594 C 165.027344 352.832031 152.273438 351.675781 139.53125 350.40625 C 111.929688 347.777344 84.304688 345.375 56.835938 341.484375 C 54.027344 341.089844 51.261719 340.351562 48.484375 339.785156 C 40.015625 338.039062 34.800781 332.734375 32.191406 324.675781 C 30.578125 319.179688 29.746094 313.566406 29.699219 307.839844 C 28.953125 288.308594 28.28125 268.753906 27.546875 249.222656 C 27.21875 240.699219 26.785156 232.171875 26.332031 222.140625 Z M 26.332031 222.140625 " fill-opacity="1" fill-rule="nonzero"/></g><path fill="#ffffff" d="M 43.6875 137.269531 C 47.269531 136.375 50.75 137.132812 54.21875 137.542969 C 77.152344 140.214844 100.050781 143.210938 123.003906 145.578125 C 151.980469 148.628906 180.988281 151.246094 209.984375 154.082031 C 218.792969 154.953125 221.671875 158.003906 221.886719 167.160156 C 222.207031 181.378906 222.195312 195.59375 222.464844 209.808594 C 223.222656 249.257812 224.003906 288.703125 224.8125 328.144531 C 224.8125 330.988281 224.902344 333.8125 224.8125 336.667969 C 224.8125 338.84375 223.488281 339.773438 221.410156 339.695312 C 217.511719 339.535156 213.589844 339.46875 209.703125 339.128906 C 197.675781 338.074219 185.648438 336.859375 173.621094 335.726562 C 151.695312 333.6875 129.761719 331.738281 107.871094 329.605469 C 93.382812 328.1875 78.917969 326.5 64.445312 324.945312 C 63.730469 324.867188 63.015625 324.890625 62.3125 324.820312 C 50.761719 323.585938 48.050781 321.226562 47.246094 309.652344 C 46.183594 294.417969 45.492188 279.148438 44.980469 263.878906 C 43.847656 225.15625 42.464844 186.433594 42.597656 147.675781 C 42.679688 144.273438 41.785156 140.660156 43.6875 137.269531 Z M 43.6875 137.269531 " fill-opacity="1" fill-rule="nonzero"/><path fill="#fb2c36" d="M 317.746094 49.984375 C 315.375 52.566406 314.253906 53.90625 313.027344 55.105469 C 294.257812 73.550781 275.417969 91.902344 256.722656 110.425781 C 247.871094 119.1875 238.585938 127.429688 229.257812 135.683594 C 226.058594 138.515625 222.964844 139.933594 218.726562 139.152344 C 195.269531 134.820312 171.421875 134.027344 147.796875 131.214844 C 123.832031 128.335938 99.734375 126.421875 75.699219 124.027344 C 70.03125 123.472656 64.363281 122.746094 58.765625 122.066406 C 57.085938 121.863281 56.246094 120.300781 57.234375 119.0625 C 58.730469 117.085938 60.351562 115.222656 62.109375 113.476562 C 84.070312 92.683594 106.0625 71.941406 128.082031 51.242188 C 132.96875 46.707031 138.445312 42.613281 143.636719 38.296875 C 145.273438 36.898438 147.105469 35.851562 149.140625 35.148438 C 151.175781 34.449219 153.265625 34.144531 155.414062 34.238281 C 163.9375 34.476562 172.417969 34.542969 180.953125 35.484375 C 192.957031 36.8125 205.03125 37.582031 217.070312 38.511719 C 238.335938 40.144531 259.613281 41.550781 280.847656 43.398438 C 290.039062 44.203125 299.152344 45.800781 308.277344 47.226562 C 311.042969 47.691406 313.699219 48.792969 317.746094 49.984375 Z M 317.746094 49.984375 " fill-opacity="1" fill-rule="nonzero"/><path fill="#d8f999" d="M 330.894531 164.011719 C 331.300781 182.488281 331.710938 200.960938 332.117188 219.433594 C 332.1875 222.980469 331.960938 226.539062 332.039062 230.085938 C 332.085938 231.691406 331.972656 233.28125 331.699219 234.859375 C 331.425781 236.441406 330.996094 237.976562 330.410156 239.472656 C 329.828125 240.964844 329.101562 242.382812 328.226562 243.730469 C 327.355469 245.074219 326.359375 246.320312 325.238281 247.464844 C 322.324219 250.582031 319.683594 253.949219 316.667969 256.953125 C 293.996094 279.535156 271.289062 302.066406 248.550781 324.550781 C 247.015625 326.003906 245.359375 327.308594 243.585938 328.460938 C 242.890625 328.523438 242.320312 328.289062 241.875 327.757812 C 241.625 326.355469 241.515625 324.941406 241.542969 323.519531 C 241.410156 310.730469 241.398438 297.933594 241.136719 285.144531 C 240.34375 245.710938 239.488281 206.277344 238.574219 166.84375 C 238.675781 164.707031 238.535156 162.589844 238.15625 160.484375 C 236.671875 154.714844 238.574219 151.066406 243.144531 146.882812 C 270.835938 121.863281 297.625 95.871094 321.925781 67.53125 C 322.59375 66.707031 323.351562 65.972656 324.195312 65.332031 C 324.296875 65.25 324.40625 65.183594 324.527344 65.128906 C 324.644531 65.074219 324.769531 65.03125 324.894531 65.007812 C 325.023438 64.984375 325.152344 64.972656 325.285156 64.980469 C 325.414062 64.984375 325.542969 65.007812 325.667969 65.046875 C 325.792969 65.082031 325.914062 65.132812 326.023438 65.199219 C 326.136719 65.265625 326.242188 65.34375 326.335938 65.4375 C 326.429688 65.527344 326.511719 65.628906 326.578125 65.738281 C 326.648438 65.847656 326.703125 65.96875 326.746094 66.089844 C 327.160156 67.820312 327.367188 69.574219 327.355469 71.351562 C 328.503906 102.246094 329.640625 133.132812 330.757812 164.011719 Z M 330.894531 164.011719 " fill-opacity="1" fill-rule="nonzero"/><path fill="#ffffff" d="M 285.542969 214.921875 L 283.40625 215.882812 L 291.304688 233.445312 L 285.609375 220.78125 C 285.527344 220.78125 285.449219 220.777344 285.371094 220.777344 C 279.402344 211.222656 267.148438 207.300781 256.589844 212.050781 L 252.78125 213.761719 C 252.78125 213.761719 264.714844 240.296875 265.058594 241.0625 C 265.527344 242.105469 254.539062 217.675781 255.484375 219.773438 C 250.707031 209.152344 238.222656 204.414062 227.601562 209.191406 L 222.152344 211.640625 L 239.523438 250.253906 L 201.40625 165.519531 C 197.730469 157.34375 188.117188 153.695312 179.941406 157.375 C 171.761719 161.050781 168.113281 170.664062 171.792969 178.839844 L 220.164062 286.371094 C 176.042969 274.332031 176.148438 281.019531 171.765625 288.363281 C 167.171875 296.0625 169.6875 306.03125 177.386719 310.625 L 245.652344 351.363281 C 254.171875 356.46875 266.792969 366.785156 299.371094 352.132812 L 320.472656 342.644531 C 343.265625 332.390625 353.378906 305.480469 343.058594 282.53125 L 327.398438 247.722656 L 318.222656 227.324219 C 312.625 214.875 297.992188 209.324219 285.542969 214.921875 " fill-opacity="1" fill-rule="nonzero"/><path fill="#1d1d1b" d="M 179.570312 284.277344 C 177.757812 285.09375 176.984375 286.484375 175.804688 288.597656 C 175.507812 289.132812 175.203125 289.675781 174.878906 290.222656 C 173.152344 293.113281 172.65625 296.507812 173.480469 299.769531 C 174.304688 303.039062 176.351562 305.785156 179.246094 307.511719 L 247.511719 348.253906 C 248.097656 348.605469 248.699219 348.976562 249.324219 349.367188 C 257.726562 354.578125 269.234375 361.714844 297.882812 348.828125 L 318.984375 339.339844 C 339.921875 329.921875 349.238281 305.105469 339.753906 284.019531 L 314.917969 228.8125 C 310.324219 218.597656 298.550781 213.816406 288.214844 217.738281 L 294.609375 231.957031 C 295.429688 233.78125 294.617188 235.929688 292.792969 236.75 C 290.964844 237.570312 288.820312 236.753906 288 234.929688 L 282.765625 223.292969 C 282.589844 223.113281 282.429688 222.914062 282.296875 222.695312 C 277.226562 214.582031 266.8125 211.425781 258.074219 215.355469 L 257.570312 215.582031 L 268.378906 239.609375 C 269.203125 241.433594 268.386719 243.578125 266.5625 244.402344 C 264.738281 245.222656 262.589844 244.40625 261.769531 242.582031 L 252.179688 221.261719 C 248.226562 212.480469 237.871094 208.546875 229.085938 212.496094 L 226.945312 213.460938 L 242.828125 248.765625 C 243.648438 250.59375 242.835938 252.738281 241.007812 253.558594 C 239.183594 254.378906 237.039062 253.566406 236.21875 251.738281 L 198.101562 167.007812 C 195.25 160.664062 187.769531 157.828125 181.425781 160.679688 C 175.085938 163.53125 172.246094 171.011719 175.097656 177.351562 L 223.46875 284.886719 C 224.042969 286.164062 223.828125 287.660156 222.917969 288.726562 C 222.003906 289.792969 220.5625 290.238281 219.207031 289.867188 C 201.019531 284.902344 189.109375 282.824219 182.800781 283.507812 C 181.421875 283.65625 180.390625 283.910156 179.570312 284.277344 Z M 321.957031 345.949219 L 300.859375 355.4375 C 268.691406 369.90625 254.175781 360.902344 245.503906 355.523438 C 244.914062 355.15625 244.34375 354.804688 243.789062 354.472656 L 175.53125 313.738281 C 170.972656 311.019531 167.75 306.6875 166.449219 301.546875 C 165.152344 296.402344 165.933594 291.0625 168.652344 286.507812 C 168.941406 286.023438 169.210938 285.542969 169.472656 285.070312 C 174.59375 275.882812 180.636719 272.507812 213.738281 280.925781 L 168.488281 180.328125 C 163.996094 170.339844 168.464844 158.5625 178.453125 154.070312 C 188.441406 149.578125 200.21875 154.046875 204.714844 164.035156 L 223.972656 206.851562 L 226.113281 205.886719 C 235.21875 201.792969 245.523438 203.683594 252.582031 209.878906 L 255.101562 208.746094 C 264.367188 204.578125 275.003906 206.199219 282.589844 212.277344 L 284.054688 211.617188 C 298.308594 205.207031 315.117188 211.585938 321.53125 225.835938 L 346.363281 281.046875 C 357.488281 305.777344 346.539062 334.894531 321.957031 345.949219 " fill-opacity="1" fill-rule="nonzero"/></svg>